# xmcd
#
# Track frame offsets:
# 182
# 13410
# 32607
# 49707
# 65222
#
# Disc length: 2830 seconds
#
# Revision: 0
# Processed by: cddbd v1.4PL0 Copyright (c) Steve Scherf et al.
# Submitted via: Audion 3.0.2 (http://www.panic.com/audion/)
#
DISCID=420b0c05
DTITLE=l.i.g.h.t. - ...good solution
DYEAR=1900
DGENRE=
TTITLE0=nobody cried
TTITLE1=good solution
TTITLE2=l.i.g.h.t.
TTITLE3=boiling pot
TTITLE4=plague
EXTD=
EXTT0=
EXTT1=
EXTT2=
EXTT3=
EXTT4=
PLAYORDER=
